<svg width="57" height="57" viewBox="0 0 57 57" fill="none" xmlns="http://www.w3.org/2000/svg">
    <path fill="#fff" d="M0 0h57v57H0z"/>
    <g clip-path="url(#a)" fill="#AAA">
        <path d="M38.985 43.632v2.758H16.942v-2.758a5.78 5.78 0 0 1 2.078-3.862 5.828 5.828 0 0 1 4.2-1.305h9.488a5.829 5.829 0 0 1 4.199 1.305 5.78 5.78 0 0 1 2.078 3.862z" fill-opacity=".45"/>
        <path d="M27.969 28.21c2.427 0 4.8-.716 6.817-2.06a12.229 12.229 0 0 0 4.52-5.484c.927-2.233 1.17-4.69.695-7.06a12.202 12.202 0 0 0-3.36-6.256 12.286 12.286 0 0 0-6.286-3.34 12.318 12.318 0 0 0-7.09.7 12.258 12.258 0 0 0-5.503 4.505 12.18 12.18 0 0 0 1.535 15.421 12.296 12.296 0 0 0 8.672 3.575zm0-22.897c2.122.001 4.196.628 5.96 1.803a10.696 10.696 0 0 1 3.951 4.795c.812 1.953 1.024 4.1.61 6.173a10.673 10.673 0 0 1-2.936 5.47 10.746 10.746 0 0 1-5.493 2.926 10.774 10.774 0 0 1-6.2-.607 10.723 10.723 0 0 1-4.817-3.933 10.654 10.654 0 0 1-.995-10.026 10.682 10.682 0 0 1 2.327-3.469 10.771 10.771 0 0 1 7.592-3.13v-.002zM34.48 32.218H21.453a12.296 12.296 0 0 0-8.675 3.579 12.19 12.19 0 0 0-3.594 8.639v8.205h37.557v-8.205c0-3.24-1.291-6.346-3.59-8.637a12.296 12.296 0 0 0-8.673-3.58zM45.2 51.108H10.719v-6.672a10.673 10.673 0 0 1 3.146-7.554 10.765 10.765 0 0 1 7.585-3.132h13.031a10.765 10.765 0 0 1 7.578 3.136 10.673 10.673 0 0 1 3.142 7.55v6.672z" stroke="#AAA" stroke-width=".8"/>
    </g>
    <defs>
        <clipPath id="a">
            <path fill="#fff" transform="translate(8 3)" d="M0 0h39.462v50.423H0z"/>
        </clipPath>
    </defs>
</svg>
