<svg width="57" height="57" viewBox="0 0 57 57" fill="none" xmlns="http://www.w3.org/2000/svg">
    <path  d="M0 0h57v57H0z"/>
    <g clip-path="url(#a)">
        <path d="M39.753 43.92v2.759H17.71V43.92a5.78 5.78 0 0 1 2.078-3.862 5.83 5.83 0 0 1 4.201-1.305h9.487a5.829 5.829 0 0 1 4.2 1.306 5.78 5.78 0 0 1 2.077 3.861z" fill="#29B6AB" fill-opacity=".45"/>
        <path d="M28.737 28.499c2.427 0 4.8-.717 6.817-2.06a12.228 12.228 0 0 0 4.52-5.485 12.17 12.17 0 0 0 .696-7.06 12.201 12.201 0 0 0-3.362-6.255 12.285 12.285 0 0 0-6.285-3.34 12.318 12.318 0 0 0-7.09.7 12.258 12.258 0 0 0-5.503 4.504 12.18 12.18 0 0 0 1.535 15.422 12.296 12.296 0 0 0 8.672 3.574zm0-22.897c2.122 0 4.196.628 5.96 1.802a10.696 10.696 0 0 1 3.951 4.796c.812 1.952 1.024 4.1.61 6.173a10.672 10.672 0 0 1-2.936 5.47 10.746 10.746 0 0 1-5.493 2.925 10.775 10.775 0 0 1-6.2-.606 10.722 10.722 0 0 1-4.816-3.933 10.654 10.654 0 0 1-.995-10.027 10.683 10.683 0 0 1 2.327-3.468c.997-.993 2.18-1.78 3.483-2.318a10.772 10.772 0 0 1 4.109-.812v-.002zM35.247 32.507H22.222a12.296 12.296 0 0 0-8.675 3.578 12.191 12.191 0 0 0-3.594 8.64v8.204h37.558v-8.205a12.19 12.19 0 0 0-3.592-8.637 12.296 12.296 0 0 0-8.672-3.58zm10.722 18.89H11.487v-6.673a10.673 10.673 0 0 1 3.146-7.553 10.765 10.765 0 0 1 7.585-3.133H35.25a10.764 10.764 0 0 1 7.578 3.137 10.672 10.672 0 0 1 3.142 7.55v6.671z" fill="#0B1725" stroke="#0B1725" stroke-width=".8"/>
    </g>
    <defs>
        <clipPath id="a">
            <path  transform="translate(8.768 3.288)" d="M0 0h39.462v50.423H0z"/>
        </clipPath>
    </defs>
</svg>
