<svg width="57" height="57" viewBox="0 0 57 57" fill="none" xmlns="http://www.w3.org/2000/svg">
    <path d="M0 0h57v57H0z"/>
    <g clip-path="url(#a)" fill="#AAA">
        <path d="M26.983 19.383c0-.745.294-1.459.816-1.985a2.776 2.776 0 0 1 1.97-.823h9.876c.738 0 1.447.296 1.97.823a2.82 2.82 0 0 1 .816 1.985v18.885a2.82 2.82 0 0 1-.817 1.985 2.777 2.777 0 0 1-1.97.823H29.77a2.777 2.777 0 0 1-1.97-.823 2.82 2.82 0 0 1-.816-1.985V19.383z" fill-opacity=".45"/>
        <path d="M44.212 48.652H26.998a4.495 4.495 0 0 1-3.186-1.332 4.566 4.566 0 0 1-1.322-3.211v-7.435c.011-.32.146-.625.375-.848a1.225 1.225 0 0 1 1.709 0c.23.223.364.527.375.848v7.435c0 .547.217 1.072.601 1.46.384.386.905.604 1.448.605h17.214c.543 0 1.064-.219 1.448-.606.384-.387.6-.912.6-1.46V13.544c0-.547-.216-1.072-.6-1.459a2.044 2.044 0 0 0-1.448-.606H26.998c-.543.001-1.064.219-1.448.606-.384.387-.6.912-.601 1.46v7.434c0 .329-.13.644-.36.876a1.224 1.224 0 0 1-1.739 0 1.244 1.244 0 0 1-.36-.876v-7.435a4.566 4.566 0 0 1 1.322-3.211A4.495 4.495 0 0 1 26.998 9h17.214a4.495 4.495 0 0 1 3.186 1.332 4.566 4.566 0 0 1 1.322 3.211V44.11a4.566 4.566 0 0 1-1.322 3.211 4.495 4.495 0 0 1-3.186 1.332z"/>
        <path d="M34.375 30.066h-23.77a1.226 1.226 0 0 1-.843-.378 1.245 1.245 0 0 1 0-1.722c.222-.232.524-.367.842-.378h23.771c.319.011.62.146.842.378a1.245 1.245 0 0 1 0 1.722 1.226 1.226 0 0 1-.842.378z"/>
        <path d="M27.816 36.674a1.224 1.224 0 0 1-1.136-.766 1.249 1.249 0 0 1 .268-1.35l5.693-5.733-5.693-5.733a1.245 1.245 0 0 1 .03-1.721 1.225 1.225 0 0 1 1.708-.031l6.558 6.608a1.245 1.245 0 0 1 0 1.752l-6.556 6.605a1.222 1.222 0 0 1-.872.37z"/>
    </g>
    <defs>
        <clipPath id="a">
            <path transform="translate(9 9)" d="M0 0h39.652v39.652H0z"/>
        </clipPath>
    </defs>
</svg>
