<svg width="57" height="57" viewBox="0 0 57 57" fill="none" xmlns="http://www.w3.org/2000/svg">
    <path fill="#fff" d="M0 0h57v57H0z"/>
    <g clip-path="url(#a)" fill="#AAA">
        <path d="M49.142 15.753 28.595 3.847a.961.961 0 0 0-.964 0L7.084 15.753a.965.965 0 0 0-.476.839v23.815a.97.97 0 0 0 .476.838L27.63 53.154a.96.96 0 0 0 .964 0l20.547-11.907a.966.966 0 0 0 .476-.839V16.592a.97.97 0 0 0-.476-.839zm-21.035-9.95 18.624 10.789-18.624 10.79-18.612-10.79 18.612-10.79zM8.531 18.267l18.624 10.793v21.577L8.53 39.848v-21.58zm20.547 32.37V29.061l18.617-10.793v21.58l-18.617 10.79z"/>
        <path d="m16.2 39.454-4.401-2.55a.963.963 0 0 0-1.413 1.088.97.97 0 0 0 .449.588l4.402 2.55a.962.962 0 0 0 1.438-.712.97.97 0 0 0-.474-.964zM10.835 34.222l2.422 1.403a.963.963 0 0 0 1.413-1.09.97.97 0 0 0-.45-.587L11.8 32.545a.961.961 0 0 0-1.317.355.971.971 0 0 0 .353 1.322z"/>
        <path fill-rule="evenodd" clip-rule="evenodd" d="M34.438 24.834v8.623l4.138-5.034 3.296.726v-8.623L20.36 8.059l-7.435 4.304 2.549 1.478 18.963 10.993z"/>
    </g>
    <defs>
        <clipPath id="a">
            <path fill="#fff" transform="translate(6.196 3.717)" d="M0 0h43.37v49.565H0z"/>
        </clipPath>
    </defs>
</svg>
