<svg width="57" height="57" viewBox="0 0 57 57" fill="none" xmlns="http://www.w3.org/2000/svg">
    <path fill="#fff" d="M0 0h56.999v57H0z"/>
    <g clip-path="url(#a)" fill="#AAA">
        <path d="M38.81 35.396v-7.279h2.82v-6.771H13.314V41.72H41.63v-6.319l-2.82-.006z" fill-opacity=".2"/>
        <path d="M48.492 26.916h-.417V8.638c0-.319-.123-.625-.343-.85a1.157 1.157 0 0 0-.829-.352H45.38l-34.222.022a4.719 4.719 0 0 0-3.013 1.538 4.953 4.953 0 0 0-1.269 3.197v31.273c0 1.29.5 2.526 1.388 3.437a4.678 4.678 0 0 0 3.35 1.424h35.29c.311 0 .61-.127.829-.352.22-.226.343-.531.343-.85V36.593h.417c.311 0 .61-.127.829-.353.22-.225.343-.531.343-.85v-7.272c0-.319-.123-.625-.343-.85a1.157 1.157 0 0 0-.829-.352zM47.32 29.32v4.874h-7.336V29.32h7.336zM11.612 9.84h34.115v4.901H11.612a2.364 2.364 0 0 1-1.69-.718 2.489 2.489 0 0 1-.703-1.733v-.049c.016-.64.275-1.25.722-1.697a2.371 2.371 0 0 1 1.67-.703V9.84zm34.115 36.08H11.612a2.364 2.364 0 0 1-1.692-.718 2.489 2.489 0 0 1-.703-1.735V16.481a4.621 4.621 0 0 0 2.393.666h34.115v9.767h-6.913c-.31 0-.609.127-.829.352-.22.226-.343.532-.343.85v7.28a1.23 1.23 0 0 0 .343.85 1.169 1.169 0 0 0 .83.353h6.918l-.004 9.32z"/>
    </g>
    <defs>
        <clipPath id="a">
            <path fill="#fff" transform="translate(6.195 7.435)" d="M0 0h43.369v40.891H0z"/>
        </clipPath>
    </defs>
</svg>
