<?xml version="1.0" encoding="utf-8"?>
<!-- Generator: Adobe Illustrator 16.0.0, SVG Export Plug-In . SVG Version: 6.00 Build 0)  -->
<!DOCTYPE svg PUBLIC "-//W3C//DTD SVG 1.1//EN" "http://www.w3.org/Graphics/SVG/1.1/DTD/svg11.dtd">
<svg version="1.1" id="Layer_1" xmlns="http://www.w3.org/2000/svg" xmlns:xlink="http://www.w3.org/1999/xlink" x="0px" y="0px"
	 width="40px" height="40px" viewBox="0 0 40 40" enable-background="new 0 0 40 40" xml:space="preserve">
<g>
	<circle fill="none" stroke="#000000" stroke-miterlimit="10" cx="20" cy="20" r="18"/>
	<path fill="none" stroke="#000000" stroke-miterlimit="10" d="M24.032,32.938c0,0-1.778-2.016-4.256-1.967
		c-2.478,0.05-4.09,1.967-4.09,1.967"/>
	<line fill="none" stroke="#000000" stroke-miterlimit="10" x1="10.243" y1="25.929" x2="16.618" y2="24.054"/>
	<path d="M15.815,25.996c0,1.041-0.844,1.885-1.885,1.885c-1.041,0-1.885-0.844-1.885-1.885c0.319-0.726,1.146-1.027,2.151-1.263
		C15.21,24.497,15.815,24.955,15.815,25.996z"/>
	<line fill="none" stroke="#000000" stroke-miterlimit="10" x1="30.052" y1="25.891" x2="23.677" y2="24.016"/>
	<path d="M24.479,25.958c0,1.041,0.845,1.885,1.885,1.885c1.041,0,1.885-0.844,1.885-1.885c-0.318-0.726-1.146-1.027-2.15-1.263
		C25.085,24.459,24.479,24.917,24.479,25.958z"/>
</g>
</svg>
